<svg xmlns="http://www.w3.org/2000/svg" viewBox="0 0 127.416 127.416"><g id="Layer_2" data-name="Layer 2"><g id="Layer_1-2" data-name="Layer 1"><g id="Path_39-2" data-name="Path 39-2"><path d="M82.807,82.807V68.794L68.794,82.807Zm-2.588-2.588h-5.45l5.45-5.45Zm-35.61-35.61V58.622L58.622,44.609ZM47.2,47.2h5.45l-5.45,5.45Zm20.6,10.6V47.2H62.931V57.585l-.378.072a6.177,6.177,0,0,0-1.537.513l-.67.326V44.609h9.768l5.435,5.435-1.9,1.9-3.261-3.261v6.522Zm15.01-.489v9.768H68.921l.326-.67a6.142,6.142,0,0,0,.512-1.54l.073-.377H80.22V59.619h-10.6l2.588-2.588h6.522L75.473,53.77l1.9-1.9ZM66.4,69.248l.671-.326V82.807H57.3l-5.435-5.435,1.9-1.9,3.261,3.261V72.21l2.588-2.587v10.6h4.866V69.831l.378-.072A6.146,6.146,0,0,0,66.4,69.248Zm-14.458,4.4-1.9,1.9-5.435-5.435V60.344H58.5l-.326.67a6.142,6.142,0,0,0-.512,1.54l-.073.377H47.2V67.8h10.6L55.2,70.385H48.682Zm15.542-9.938a3.778,3.778,0,1,1-3.778-3.779A3.778,3.778,0,0,1,67.486,63.708Z"></path></g><path d="M32.5,105.179l-1.137-.846-.845,1.138-.846,1.136,1.137.846a1.365,1.365,0,0,0,.5.237,1.416,1.416,0,0,0,.564.026,1.388,1.388,0,0,0,.517-.185,1.434,1.434,0,0,0,.643-.865,1.558,1.558,0,0,0,.028-.548,1.429,1.429,0,0,0-.188-.533A1.362,1.362,0,0,0,32.5,105.179Z"></path><path d="M41.394,110.688a1.376,1.376,0,0,0-.442-.328l-1.279-.611-.611,1.28-.612,1.28,1.279.611a1.358,1.358,0,0,0,.533.137,1.454,1.454,0,0,0,.559-.083,1.423,1.423,0,0,0,.472-.282,1.439,1.439,0,0,0,.465-.972,1.566,1.566,0,0,0-.078-.544A1.42,1.42,0,0,0,41.394,110.688Z"></path><path d="M34.817,17.107a2.805,2.805,0,0,0,.708.856,2.949,2.949,0,0,0,2.082.611,2.893,2.893,0,0,0,1.9-1.039,2.833,2.833,0,0,0,.5-.982,2.761,2.761,0,0,0,.118-1.106A2.8,2.8,0,0,0,39.8,14.39a2.829,2.829,0,0,0-3.848-1.13,2.773,2.773,0,0,0-.855.707,2.732,2.732,0,0,0-.5.993,2.811,2.811,0,0,0-.108,1.1A2.761,2.761,0,0,0,34.817,17.107Z"></path><path d="M26.1,23.915l1.063-.937a1.36,1.36,0,0,0,.335-.437,1.436,1.436,0,0,0,.142-.547,1.391,1.391,0,0,0-.074-.544,1.423,1.423,0,0,0-.713-.808,1.538,1.538,0,0,0-.531-.142,1.424,1.424,0,0,0-.56.072,1.369,1.369,0,0,0-.475.279l-1.063.937.938,1.064Z"></path><path d="M12,74.342a2.864,2.864,0,0,0,.469-1,2.885,2.885,0,0,0-.341-2.14,2.85,2.85,0,0,0-.758-.8,2.745,2.745,0,0,0-1-.48,2.9,2.9,0,0,0-2.141.342,3.111,3.111,0,0,0-1.282,1.77,2.783,2.783,0,0,0-.039,1.1,2.817,2.817,0,0,0,.38,1.043,2.751,2.751,0,0,0,.769.8,2.845,2.845,0,0,0,1,.468,2.764,2.764,0,0,0,1.1.039A2.81,2.81,0,0,0,11.2,75.1,2.857,2.857,0,0,0,12,74.342Z"></path><path d="M8.981,62.016,9.072,60.6A1.319,1.319,0,0,0,9,60.058a1.432,1.432,0,0,0-.285-.489,1.392,1.392,0,0,0-.437-.333A1.431,1.431,0,0,0,7.2,59.168a1.576,1.576,0,0,0-.475.274,1.434,1.434,0,0,0-.346.448,1.354,1.354,0,0,0-.139.531l-.091,1.414,1.414.091Z"></path><path d="M25.182,98.472l-.958-1.045-1.045.959-1.045.958.958,1.045a1.359,1.359,0,0,0,.442.326,1.411,1.411,0,0,0,.549.131,1.387,1.387,0,0,0,.543-.084,1.364,1.364,0,0,0,.469-.286,1.348,1.348,0,0,0,.326-.443,1.575,1.575,0,0,0,.131-.533,1.425,1.425,0,0,0-.084-.56A1.369,1.369,0,0,0,25.182,98.472Z"></path><path d="M15.676,92.8q.785-1.11,1.042-1.481-1.356.153-1.8.211Z"></path><path d="M10.41,51.138l.37-1.368a1.338,1.338,0,0,0,.038-.548,1.414,1.414,0,0,0-.183-.535,1.382,1.382,0,0,0-.362-.414,1.436,1.436,0,0,0-1.04-.28,1.575,1.575,0,0,0-.52.175,1.436,1.436,0,0,0-.427.37,1.349,1.349,0,0,0-.242.492L7.674,50.4l1.368.37Z"></path><path d="M104.733,100a2.828,2.828,0,0,0-4.009.06,2.788,2.788,0,0,0-.608.928,2.742,2.742,0,0,0-.183,1.1,2.794,2.794,0,0,0,2.867,2.783,2.853,2.853,0,0,0,1.082-.222,2.89,2.89,0,0,0,1.511-1.556,2.852,2.852,0,0,0,.191-1.089,2.708,2.708,0,0,0-.851-2Z"></path><path d="M90.682,13.788a.48.48,0,0,0,.274-.249.418.418,0,0,0-.183-.654l-.408-.231-.236.419-.23.408.409.23A.5.5,0,0,0,90.682,13.788Z"></path><path d="M89.337,18.464a1.516,1.516,0,0,0,.559-.035,1.589,1.589,0,0,0,.489-.249,1.462,1.462,0,0,0,.362-.428,1.364,1.364,0,0,0,.173-.522,1.341,1.341,0,0,0-.294-1.052,1.339,1.339,0,0,0-.418-.357l-.827-.467-.408-.229-.7,1.235L87.581,17.6l1.234.7A1.375,1.375,0,0,0,89.337,18.464Z"></path><path d="M63.708,0a63.708,63.708,0,1,0,63.708,63.708A63.708,63.708,0,0,0,63.708,0Zm57.983,50.541-9.2,2.152-.429-1.838,9.2-2.152Zm-4.366-10.664a2.751,2.751,0,0,1,1.512,1.557,2.758,2.758,0,0,1,.2,1.08,2.823,2.823,0,0,1-.241,1.078,2.918,2.918,0,0,1-.616.926,2.826,2.826,0,0,1-.936.6l-.7-1.754a.914.914,0,0,0,.311-.2.962.962,0,0,0,.206-.308.991.991,0,0,0,.084-.362.975.975,0,0,0-.068-.363.917.917,0,0,0-.2-.313,1,1,0,0,0-.309-.205.981.981,0,0,0-.361-.084.913.913,0,0,0-.363.069.928.928,0,0,0-.375.262.9.9,0,0,0-.183.4,3.94,3.94,0,0,0-.062.416,1.034,1.034,0,0,0,0,.278c0,.031.008.1.014.2s.013.214.031.367a4.17,4.17,0,0,1-.057,1.031,2.266,2.266,0,0,1-.158.555,3.581,3.581,0,0,1-.27.56,1.876,1.876,0,0,1-.427.484,2.278,2.278,0,0,1-.625.362,2.806,2.806,0,0,1-1.091.2,2.75,2.75,0,0,1-1.083-.252,2.614,2.614,0,0,1-.915-.62,2.9,2.9,0,0,1-.8-2.016,2.949,2.949,0,0,1,.862-1.993,2.783,2.783,0,0,1,.935-.6l.695,1.754a.925.925,0,0,0-.312.2.982.982,0,0,0-.2.308.958.958,0,0,0-.084.361.921.921,0,0,0,.069.364.9.9,0,0,0,.507.517.981.981,0,0,0,.361.084.921.921,0,0,0,.364-.069.878.878,0,0,0,.41-.3.7.7,0,0,0,.127-.441c0-.168,0-.311,0-.427s-.011-.188-.01-.248c0-.032-.011-.092-.021-.181s0-.213-.005-.363a3.313,3.313,0,0,1,.01-.483,5.07,5.07,0,0,1,.089-.539,2.676,2.676,0,0,1,.174-.548,4.946,4.946,0,0,1,.284-.555,1.856,1.856,0,0,1,.441-.477,2.488,2.488,0,0,1,.619-.346,2.8,2.8,0,0,1,1.091-.2A2.743,2.743,0,0,1,117.325,39.877Zm-8.145-8.463,3.2-2,3.013,4.808-1.6,1-2.012-3.208-1.6,1,1.506,2.4-1.6,1-1.507-2.4-1.609,1.007,2.01,3.209-1.6,1-2.011-3.208-1-1.6,3.209-2.011Zm-4.387-10.828,1.285,1.384a4.527,4.527,0,0,1,.987,1.562,4.622,4.622,0,0,1,.282,1.82,4.914,4.914,0,0,1-.415,1.809,4.75,4.75,0,0,1-1.091,1.479,4.854,4.854,0,0,1-1.564.988,4.992,4.992,0,0,1-3.637-.126,4.832,4.832,0,0,1-1.487-1.1l-1.284-1.382Zm-18.16-5.152.7-1.236.927-1.643.229-.409,1.162-2.061L91.7,11.241a2.261,2.261,0,0,1,.7.6,2.458,2.458,0,0,1,.42.829,2.489,2.489,0,0,1,.071.927,2.275,2.275,0,0,1-.29.872,2.034,2.034,0,0,1-.215.309,1.835,1.835,0,0,1-.25.277,2.985,2.985,0,0,1,.453.819,3.343,3.343,0,0,1,.216.93,3.18,3.18,0,0,1-.059.962,3.472,3.472,0,0,1-1.18,1.9,3.23,3.23,0,0,1-1.167.566,3.106,3.106,0,0,1-1.285.11,3.239,3.239,0,0,1-1.223-.407l-2.879-1.622Zm-9-3.795.6-1.791,1.195-3.582,5.384,1.8-.6,1.791-3.593-1.2-.6,1.791,2.692.9-.6,1.791-2.691-.9-.6,1.8,3.594,1.2-.6,1.791-3.592-1.2-1.791-.6ZM65.938,4.2q.993,3.323,1.322,4.426,1.6-3.075,2.146-4.095.99,3.323,1.321,4.426,1.6-3.075,2.134-4.1l2.031.194q-3.486,6.782-4.657,9.05Q69.229,10.7,68.9,9.558q-1.6,3.156-2.133,4.213Q64.63,6.441,63.908,4ZM110.77,63.708A47.062,47.062,0,1,1,63.708,16.646,47.063,47.063,0,0,1,110.77,63.708ZM49.592,5.934l1.823-.489,2.447,9.125q-5.115-2.643-6.818-3.522l1.339,4.992-1.823.489L44.112,7.4q5.113,2.636,6.82,3.524Zm-16.821,8.5a4.616,4.616,0,0,1,.842-1.635,4.678,4.678,0,0,1,1.426-1.179,4.461,4.461,0,0,1,1.757-.572,4.794,4.794,0,0,1,3.482,1.022,4.578,4.578,0,0,1,1.173,1.415,4.68,4.68,0,0,1,.562,1.763,4.592,4.592,0,0,1-.169,1.842A4.924,4.924,0,0,1,41,18.74,4.7,4.7,0,0,1,39.575,19.9a4.838,4.838,0,0,1-1.757.573,4.644,4.644,0,0,1-4.661-2.449,4.718,4.718,0,0,1-.566-1.747A4.887,4.887,0,0,1,32.771,14.434Zm-9.794,5.939,1.063-.937a3.251,3.251,0,0,1,1.112-.654,3.336,3.336,0,0,1,1.281-.16,3.09,3.09,0,0,1,2.272,1.106,3.555,3.555,0,0,1,.561.848,3,3,0,0,1,.255.963,3.108,3.108,0,0,1-.037.985,3.216,3.216,0,0,1-.315.919q2.707.66,3.606.882l-1.722,1.52-4.107-.989,2.287,2.593L27.818,28.7q-1.412-1.582-1.884-2.119L23.748,24.1l-2.186-2.479ZM15.4,29.033l1.144-1.515,1.42-1.88,1.506,1.137-1.42,1.88,6.033,4.557-1.144,1.516L16.9,30.171l-1.42,1.88-1.505-1.138Zm-4.045,6.4,1.694.83-1.665,3.4,1.694.83,1.248-2.548,1.7.83-1.248,2.548,1.706.836,1.666-3.4,1.694.83-1.665,3.4-.831,1.7-3.4-1.666-1.7-.83L8.854,40.526Zm-5.5,14.476.37-1.368a3.231,3.231,0,0,1,.566-1.157,3.331,3.331,0,0,1,.979-.839,3.436,3.436,0,0,1,1.221-.436,3.416,3.416,0,0,1,1.282.1A3.132,3.132,0,0,1,12.28,47.76a3.138,3.138,0,0,1,.412,1.216,3.243,3.243,0,0,1-.091,1.285l-.371,1.368,2.737.738-.491,1.821-2.737-.739-3.188-.861-3.189-.86ZM4.271,61.715,4.362,60.3a3.245,3.245,0,0,1,.326-1.247,3.353,3.353,0,0,1,.792-1.018,3.429,3.429,0,0,1,1.112-.668,3.388,3.388,0,0,1,1.277-.153,3.543,3.543,0,0,1,1,.2,2.957,2.957,0,0,1,.86.5,3.137,3.137,0,0,1,.67.724,3.192,3.192,0,0,1,.425.872q2.38-1.444,3.174-1.921l-.146,2.291q-2.7,1.644-3.6,2.2l3.448.221-.121,1.882q-2.115-.124-2.829-.169l-3.3-.211-3.3-.211ZM8.632,77.3a4.932,4.932,0,0,1-1.679-.788A4.6,4.6,0,0,1,5.7,75.171a4.678,4.678,0,0,1-.633-1.737,4.481,4.481,0,0,1,.049-1.847,4.8,4.8,0,0,1,2.128-2.938,4.6,4.6,0,0,1,1.727-.63,4.664,4.664,0,0,1,1.847.06,4.584,4.584,0,0,1,1.678.776,4.908,4.908,0,0,1,1.272,1.351,4.742,4.742,0,0,1,.619,1.728,4.816,4.816,0,0,1-.049,1.846,4.97,4.97,0,0,1-2.127,2.949,4.83,4.83,0,0,1-1.739.622A4.734,4.734,0,0,1,8.632,77.3Zm5.8,19.873-.623-1.048-.049-.081-.162-.272.857-1.218a.153.153,0,0,0,.038-.051L12.86,91.764l-.078.006q-1.1.123-1.469.166l-.163-.272-.036-.06-.623-1.048-.21-.353q7.355-.845,9.8-1.131c.246-.028.41-.044.49-.047-.137.2-.23.333-.281.4q-4.248,6.063-5.665,8.08Zm9.554,5.559a3.162,3.162,0,0,1-1.248-.3,3.24,3.24,0,0,1-1.036-.767l-.958-1.045-2.09,1.917-1.275-1.39,2.09-1.916L21.9,97l2.436-2.233,1.275,1.39.958,1.045a3.235,3.235,0,0,1,.674,1.1,3.314,3.314,0,0,1,.185,1.277,3.434,3.434,0,0,1-.286,1.265,3.532,3.532,0,0,1-1.867,1.71A3.345,3.345,0,0,1,23.985,102.732Zm9.376,6.43a3.34,3.34,0,0,1-1.235.425,3.168,3.168,0,0,1-1.281-.063,3.228,3.228,0,0,1-1.162-.557l-1.137-.846L26.854,110.4l-1.513-1.125L27.032,107,29,104.345l1.971-2.651,1.513,1.125,1.137.846a3.265,3.265,0,0,1,.869.952,3.34,3.34,0,0,1,.422,1.219,3.431,3.431,0,0,1-.044,1.3,3.531,3.531,0,0,1-1.51,2.03Zm9.962,3.9a3.6,3.6,0,0,1-.561.849,3,3,0,0,1-.786.611,3.1,3.1,0,0,1-.921.353,3.223,3.223,0,0,1-.968.07q.453,2.748.6,3.663l-2.073-.99q-.52-3.12-.7-4.165l-1.489,3.12-1.7-.813q.9-1.92,1.211-2.565l1.423-2.981,1.425-2.983,1.7.814,1.28.611a3.232,3.232,0,0,1,1.037.768,3.3,3.3,0,0,1,.648,1.115,3.419,3.419,0,0,1,.207,1.28A3.355,3.355,0,0,1,43.323,113.064Zm9.4,1.438-3.658-.971-.484,1.823,2.739.727-.483,1.823-2.739-.727-.489,1.834,3.659.97-.485,1.824-3.657-.971L45.3,120.35l.971-3.658.484-1.822.969-3.646,5.479,1.455Zm5.259,4.777a2.952,2.952,0,0,0,1.44,1.627,2.916,2.916,0,0,0,2.176.134,3.009,3.009,0,0,0,.951-.564q.837.931,1.254,1.4a5.1,5.1,0,0,1-.738.542,4.329,4.329,0,0,1-.834.384,4.566,4.566,0,0,1-1.85.262,4.826,4.826,0,0,1-1.793-.451,4.718,4.718,0,0,1-1.469-1.136,4.476,4.476,0,0,1-1.177-3.419,4.722,4.722,0,0,1,.451-1.782,4.905,4.905,0,0,1,1.134-1.469,4.632,4.632,0,0,1,1.585-.937,4.892,4.892,0,0,1,2.779-.088,4.54,4.54,0,0,1,.871.335,5.342,5.342,0,0,1,.781.483,5.416,5.416,0,0,1,.668.617l-1.416,1.252a3,3,0,0,0-.887-.677,2.9,2.9,0,0,0-2.166-.133,2.788,2.788,0,0,0-.951.576,2.839,2.839,0,0,0-.676.875,2.761,2.761,0,0,0-.277,1.064A2.806,2.806,0,0,0,57.979,119.279ZM68.275,123l-.946-9.4,1.876-.188.947,9.395Zm14.476-2.851-1.176.32-.091.024-.3.083-.944-1.152a.118.118,0,0,0-.038-.05l-3.075.834-.016.077q-.177,1.092-.235,1.46l-.306.082-.067.019-1.176.319-.395.107q1.159-7.308,1.545-9.742c.039-.245.068-.406.087-.484.155.184.258.309.308.377q4.695,5.718,6.257,7.626Zm6.72-2.833-3.445-6.732-2.1,1.074-.861-1.681,2.1-1.073,1.69-.865,2.1-1.073.86,1.679-2.1,1.074,3.444,6.732Zm7.8-4.517-5.521-7.662,1.53-1.1,5.523,7.661Zm9.893-9a4.774,4.774,0,0,1-1.014,1.531,4.829,4.829,0,0,1-1.509,1.066,4.981,4.981,0,0,1-3.637.062,4.823,4.823,0,0,1-1.54-1.021,4.726,4.726,0,0,1-1.058-1.5,4.907,4.907,0,0,1-.375-1.818,4.621,4.621,0,0,1,.321-1.811A4.686,4.686,0,0,1,99.37,98.76a4.469,4.469,0,0,1,1.51-1.067,4.809,4.809,0,0,1,3.629-.053,4.558,4.558,0,0,1,1.539,1,4.684,4.684,0,0,1,1.058,1.517,4.57,4.57,0,0,1,.383,1.81A4.926,4.926,0,0,1,107.169,103.8Zm6.2-7.319L112.4,98.1l-8.08-4.883q5.506-1.639,7.353-2.181l-4.421-2.671.975-1.614,8.08,4.883q-5.517,1.633-7.353,2.181Zm8.516-20.45-.347,1.856-9.285-1.735q4.593-3.469,6.121-4.627l-5.08-.949.347-1.854,9.285,1.734q-4.582,3.472-6.122,4.627Zm.907-13.7a5.316,5.316,0,0,1-.394.829,5.567,5.567,0,0,1-.538.731l-1.4-1.268a2.976,2.976,0,0,0,.574-.956,2.755,2.755,0,0,0,.157-1.087,2.9,2.9,0,0,0-1.885-2.534,2.74,2.74,0,0,0-1.087-.157,2.773,2.773,0,0,0-1.078.264,2.829,2.829,0,0,0-.882.665,2.869,2.869,0,0,0-.576.944,2.8,2.8,0,0,0-.156,1.1,2.661,2.661,0,0,0,.183.859,2.76,2.76,0,0,0,.437.764,2.944,2.944,0,0,0,.627.58,2.885,2.885,0,0,0,.781.372l-.132-2.669,1.885-.093.131,2.668.054,1.089.043.866c-.154.038-.31.069-.465.093s-.314.039-.478.048a4.7,4.7,0,0,1-1.831-.262,4.565,4.565,0,0,1-1.584-.954,4.916,4.916,0,0,1-1.119-1.482,4.735,4.735,0,0,1-.428-1.785,4.809,4.809,0,0,1,.25-1.831,4.976,4.976,0,0,1,2.435-2.7,4.815,4.815,0,0,1,1.8-.429,4.73,4.73,0,0,1,1.82.25,4.909,4.909,0,0,1,1.584.966,4.6,4.6,0,0,1,1.546,3.267,4.121,4.121,0,0,1-.035.952A4.55,4.55,0,0,1,122.8,62.327Z"></path><path d="M102.52,28.012a2.856,2.856,0,0,0,1.093-.168,2.8,2.8,0,0,0,1.836-2.554,2.931,2.931,0,0,0-.158-1.1,2.8,2.8,0,0,0-.588-.942l-4.157,3.862a2.776,2.776,0,0,0,.9.656A3.036,3.036,0,0,0,102.52,28.012Z"></path><path d="M77.733,116.38q-.216,1.346-.279,1.787l1.424-.386Q78.023,116.727,77.733,116.38Z"></path></g></g></svg>